<mxfile host="app.diagrams.net" agent="Mozilla/5.0 (Windows NT 10.0; Win64; x64) AppleWebKit/537.36 (KHTML, like Gecko) Chrome/131.0.0.0 Safari/537.36" version="26.0.2">
  <diagram name="Page-1" id="03018318-947c-dd8e-b7a3-06fadd420f32">
    <mxGraphModel dx="3354" dy="1258" grid="1" gridSize="10" guides="1" tooltips="1" connect="1" arrows="1" fold="1" page="1" pageScale="1" pageWidth="1100" pageHeight="850" background="none" math="0" shadow="0">
      <root>
        <mxCell id="0" />
        <mxCell id="1" parent="0" />
        <mxCell id="677b7b8949515195-1" value="" style="whiteSpace=wrap;html=1;rounded=0;shadow=0;labelBackgroundColor=none;strokeColor=#000000;strokeWidth=1;fillColor=none;fontFamily=Verdana;fontSize=12;fontColor=#000000;align=center;comic=1;" parent="1" vertex="1">
          <mxGeometry x="20" y="70" width="1060" height="550" as="geometry" />
        </mxCell>
        <mxCell id="3aGJddo-5EH4ExrnTLLF-4" value="&lt;font face=&quot;Tahoma&quot; style=&quot;font-size: 20px;&quot;&gt;Enrollment Reports&lt;/font&gt;" style="text;strokeColor=none;fillColor=none;html=1;fontSize=24;fontStyle=1;verticalAlign=middle;align=center;" parent="1" vertex="1">
          <mxGeometry x="440.5" y="70" width="220" height="40" as="geometry" />
        </mxCell>
        <mxCell id="b_-qBEc8-tPpr0zeS2S6-1" value="&lt;font style=&quot;font-size: 18px;&quot;&gt;fourthwallacademy.com/Dashboard/Enrollment/Students&lt;/font&gt;" style="html=1;strokeWidth=1;shadow=0;dashed=0;shape=mxgraph.ios7ui.url;fillColor=#e0e0e0;strokeColor=#c0c0c0;buttonText=;strokeColor2=#222222;fontColor=#222222;fontSize=8;spacingTop=2;align=center;whiteSpace=wrap;" parent="1" vertex="1">
          <mxGeometry x="25.5" y="20" width="1050" height="42.5" as="geometry" />
        </mxCell>
        <mxCell id="ZwHE_Ob0DUc1sspuv7PX-6" value="Apply" style="html=1;shadow=0;dashed=0;shape=mxgraph.bootstrap.rrect;rSize=5;fillColor=#0085FC;strokeColor=none;align=center;spacing=15;fontSize=14;fontColor=#ffffff;sketch=0;" parent="1" vertex="1">
          <mxGeometry x="410" y="118.5" width="60" height="30" as="geometry" />
        </mxCell>
        <mxCell id="ZwHE_Ob0DUc1sspuv7PX-15" value="Order" style="text;html=1;align=center;verticalAlign=middle;whiteSpace=wrap;rounded=0;" parent="1" vertex="1">
          <mxGeometry x="25" y="118.5" width="60" height="30" as="geometry" />
        </mxCell>
        <mxCell id="ZwHE_Ob0DUc1sspuv7PX-16" value="Student" style="html=1;shadow=0;dashed=0;shape=mxgraph.bootstrap.rrect;rSize=5;strokeColor=none;strokeWidth=1;fillColor=#6C767D;fontColor=#ffffff;whiteSpace=wrap;align=right;verticalAlign=middle;fontStyle=0;fontSize=14;spacingRight=20;" parent="1" vertex="1">
          <mxGeometry x="80" y="121.5" width="140" height="27" as="geometry" />
        </mxCell>
        <mxCell id="ZwHE_Ob0DUc1sspuv7PX-17" value="" style="shape=triangle;direction=south;fillColor=#ffffff;strokeColor=none;perimeter=none;" parent="ZwHE_Ob0DUc1sspuv7PX-16" vertex="1">
          <mxGeometry x="1" y="0.5" width="10" height="5" relative="1" as="geometry">
            <mxPoint x="-17" y="-2.5" as="offset" />
          </mxGeometry>
        </mxCell>
        <mxCell id="MvRHuvZ1edDw_HGWbF9z-1" value="" style="shape=table;startSize=0;container=1;collapsible=0;childLayout=tableLayout;fontSize=16;" parent="1" vertex="1">
          <mxGeometry x="25" y="250" width="1010" height="360" as="geometry" />
        </mxCell>
        <mxCell id="MvRHuvZ1edDw_HGWbF9z-2" value="" style="shape=tableRow;horizontal=0;startSize=0;swimlaneHead=0;swimlaneBody=0;strokeColor=inherit;top=0;left=0;bottom=0;right=0;collapsible=0;dropTarget=0;fillColor=none;points=[[0,0.5],[1,0.5]];portConstraint=eastwest;fontSize=16;" parent="MvRHuvZ1edDw_HGWbF9z-1" vertex="1">
          <mxGeometry width="1010" height="40" as="geometry" />
        </mxCell>
        <mxCell id="MvRHuvZ1edDw_HGWbF9z-3" value="&lt;b&gt;Student&lt;/b&gt;" style="shape=partialRectangle;html=1;whiteSpace=wrap;connectable=0;strokeColor=inherit;overflow=hidden;fillColor=none;top=0;left=0;bottom=0;right=0;pointerEvents=1;fontSize=16;" parent="MvRHuvZ1edDw_HGWbF9z-2" vertex="1">
          <mxGeometry width="560" height="40" as="geometry">
            <mxRectangle width="560" height="40" as="alternateBounds" />
          </mxGeometry>
        </mxCell>
        <mxCell id="MvRHuvZ1edDw_HGWbF9z-5" value="&lt;b&gt;# Sections&lt;/b&gt;" style="shape=partialRectangle;html=1;whiteSpace=wrap;connectable=0;strokeColor=inherit;overflow=hidden;fillColor=none;top=0;left=0;bottom=0;right=0;pointerEvents=1;fontSize=16;" parent="MvRHuvZ1edDw_HGWbF9z-2" vertex="1">
          <mxGeometry x="560" width="235" height="40" as="geometry">
            <mxRectangle width="235" height="40" as="alternateBounds" />
          </mxGeometry>
        </mxCell>
        <mxCell id="MvRHuvZ1edDw_HGWbF9z-14" value="&lt;b&gt;#Absences&lt;/b&gt;" style="shape=partialRectangle;html=1;whiteSpace=wrap;connectable=0;strokeColor=inherit;overflow=hidden;fillColor=none;top=0;left=0;bottom=0;right=0;pointerEvents=1;fontSize=16;" parent="MvRHuvZ1edDw_HGWbF9z-2" vertex="1">
          <mxGeometry x="795" width="215" height="40" as="geometry">
            <mxRectangle width="215" height="40" as="alternateBounds" />
          </mxGeometry>
        </mxCell>
        <mxCell id="MvRHuvZ1edDw_HGWbF9z-6" value="" style="shape=tableRow;horizontal=0;startSize=0;swimlaneHead=0;swimlaneBody=0;strokeColor=inherit;top=0;left=0;bottom=0;right=0;collapsible=0;dropTarget=0;fillColor=none;points=[[0,0.5],[1,0.5]];portConstraint=eastwest;fontSize=16;" parent="MvRHuvZ1edDw_HGWbF9z-1" vertex="1">
          <mxGeometry y="40" width="1010" height="40" as="geometry" />
        </mxCell>
        <mxCell id="MvRHuvZ1edDw_HGWbF9z-7" value="Astral Whisper" style="shape=partialRectangle;html=1;whiteSpace=wrap;connectable=0;strokeColor=#36393d;overflow=hidden;fillColor=#f9f7ed;top=0;left=0;bottom=0;right=0;pointerEvents=1;fontSize=16;" parent="MvRHuvZ1edDw_HGWbF9z-6" vertex="1">
          <mxGeometry width="560" height="40" as="geometry">
            <mxRectangle width="560" height="40" as="alternateBounds" />
          </mxGeometry>
        </mxCell>
        <mxCell id="MvRHuvZ1edDw_HGWbF9z-9" value="14" style="shape=partialRectangle;html=1;whiteSpace=wrap;connectable=0;strokeColor=#36393d;overflow=hidden;fillColor=#f9f7ed;top=0;left=0;bottom=0;right=0;pointerEvents=1;fontSize=16;" parent="MvRHuvZ1edDw_HGWbF9z-6" vertex="1">
          <mxGeometry x="560" width="235" height="40" as="geometry">
            <mxRectangle width="235" height="40" as="alternateBounds" />
          </mxGeometry>
        </mxCell>
        <mxCell id="MvRHuvZ1edDw_HGWbF9z-15" value="0" style="shape=partialRectangle;html=1;whiteSpace=wrap;connectable=0;strokeColor=#36393d;overflow=hidden;fillColor=#f9f7ed;top=0;left=0;bottom=0;right=0;pointerEvents=1;fontSize=16;" parent="MvRHuvZ1edDw_HGWbF9z-6" vertex="1">
          <mxGeometry x="795" width="215" height="40" as="geometry">
            <mxRectangle width="215" height="40" as="alternateBounds" />
          </mxGeometry>
        </mxCell>
        <mxCell id="MvRHuvZ1edDw_HGWbF9z-51" style="shape=tableRow;horizontal=0;startSize=0;swimlaneHead=0;swimlaneBody=0;strokeColor=inherit;top=0;left=0;bottom=0;right=0;collapsible=0;dropTarget=0;fillColor=none;points=[[0,0.5],[1,0.5]];portConstraint=eastwest;fontSize=16;" parent="MvRHuvZ1edDw_HGWbF9z-1" vertex="1">
          <mxGeometry y="80" width="1010" height="40" as="geometry" />
        </mxCell>
        <mxCell id="MvRHuvZ1edDw_HGWbF9z-52" value="Aurora" style="shape=partialRectangle;html=1;whiteSpace=wrap;connectable=0;strokeColor=#36393d;overflow=hidden;fillColor=#eeeeee;top=0;left=0;bottom=0;right=0;pointerEvents=1;fontSize=16;" parent="MvRHuvZ1edDw_HGWbF9z-51" vertex="1">
          <mxGeometry width="560" height="40" as="geometry">
            <mxRectangle width="560" height="40" as="alternateBounds" />
          </mxGeometry>
        </mxCell>
        <mxCell id="MvRHuvZ1edDw_HGWbF9z-54" value="14" style="shape=partialRectangle;html=1;whiteSpace=wrap;connectable=0;strokeColor=#36393d;overflow=hidden;fillColor=#eeeeee;top=0;left=0;bottom=0;right=0;pointerEvents=1;fontSize=16;" parent="MvRHuvZ1edDw_HGWbF9z-51" vertex="1">
          <mxGeometry x="560" width="235" height="40" as="geometry">
            <mxRectangle width="235" height="40" as="alternateBounds" />
          </mxGeometry>
        </mxCell>
        <mxCell id="MvRHuvZ1edDw_HGWbF9z-55" value="0" style="shape=partialRectangle;html=1;whiteSpace=wrap;connectable=0;strokeColor=#36393d;overflow=hidden;fillColor=#eeeeee;top=0;left=0;bottom=0;right=0;pointerEvents=1;fontSize=16;" parent="MvRHuvZ1edDw_HGWbF9z-51" vertex="1">
          <mxGeometry x="795" width="215" height="40" as="geometry">
            <mxRectangle width="215" height="40" as="alternateBounds" />
          </mxGeometry>
        </mxCell>
        <mxCell id="MvRHuvZ1edDw_HGWbF9z-44" style="shape=tableRow;horizontal=0;startSize=0;swimlaneHead=0;swimlaneBody=0;strokeColor=inherit;top=0;left=0;bottom=0;right=0;collapsible=0;dropTarget=0;fillColor=none;points=[[0,0.5],[1,0.5]];portConstraint=eastwest;fontSize=16;" parent="MvRHuvZ1edDw_HGWbF9z-1" vertex="1">
          <mxGeometry y="120" width="1010" height="40" as="geometry" />
        </mxCell>
        <mxCell id="MvRHuvZ1edDw_HGWbF9z-45" value="Blase" style="shape=partialRectangle;html=1;whiteSpace=wrap;connectable=0;strokeColor=#36393d;overflow=hidden;fillColor=#f9f7ed;top=0;left=0;bottom=0;right=0;pointerEvents=1;fontSize=16;" parent="MvRHuvZ1edDw_HGWbF9z-44" vertex="1">
          <mxGeometry width="560" height="40" as="geometry">
            <mxRectangle width="560" height="40" as="alternateBounds" />
          </mxGeometry>
        </mxCell>
        <mxCell id="MvRHuvZ1edDw_HGWbF9z-47" value="14" style="shape=partialRectangle;html=1;whiteSpace=wrap;connectable=0;strokeColor=#36393d;overflow=hidden;fillColor=#f9f7ed;top=0;left=0;bottom=0;right=0;pointerEvents=1;fontSize=16;" parent="MvRHuvZ1edDw_HGWbF9z-44" vertex="1">
          <mxGeometry x="560" width="235" height="40" as="geometry">
            <mxRectangle width="235" height="40" as="alternateBounds" />
          </mxGeometry>
        </mxCell>
        <mxCell id="MvRHuvZ1edDw_HGWbF9z-48" value="0" style="shape=partialRectangle;html=1;whiteSpace=wrap;connectable=0;strokeColor=#36393d;overflow=hidden;fillColor=#f9f7ed;top=0;left=0;bottom=0;right=0;pointerEvents=1;fontSize=16;" parent="MvRHuvZ1edDw_HGWbF9z-44" vertex="1">
          <mxGeometry x="795" width="215" height="40" as="geometry">
            <mxRectangle width="215" height="40" as="alternateBounds" />
          </mxGeometry>
        </mxCell>
        <mxCell id="MvRHuvZ1edDw_HGWbF9z-37" style="shape=tableRow;horizontal=0;startSize=0;swimlaneHead=0;swimlaneBody=0;strokeColor=inherit;top=0;left=0;bottom=0;right=0;collapsible=0;dropTarget=0;fillColor=none;points=[[0,0.5],[1,0.5]];portConstraint=eastwest;fontSize=16;" parent="MvRHuvZ1edDw_HGWbF9z-1" vertex="1">
          <mxGeometry y="160" width="1010" height="40" as="geometry" />
        </mxCell>
        <mxCell id="MvRHuvZ1edDw_HGWbF9z-38" value="Blur" style="shape=partialRectangle;html=1;whiteSpace=wrap;connectable=0;strokeColor=#36393d;overflow=hidden;fillColor=#eeeeee;top=0;left=0;bottom=0;right=0;pointerEvents=1;fontSize=16;" parent="MvRHuvZ1edDw_HGWbF9z-37" vertex="1">
          <mxGeometry width="560" height="40" as="geometry">
            <mxRectangle width="560" height="40" as="alternateBounds" />
          </mxGeometry>
        </mxCell>
        <mxCell id="MvRHuvZ1edDw_HGWbF9z-40" value="14" style="shape=partialRectangle;html=1;whiteSpace=wrap;connectable=0;strokeColor=#36393d;overflow=hidden;fillColor=#eeeeee;top=0;left=0;bottom=0;right=0;pointerEvents=1;fontSize=16;" parent="MvRHuvZ1edDw_HGWbF9z-37" vertex="1">
          <mxGeometry x="560" width="235" height="40" as="geometry">
            <mxRectangle width="235" height="40" as="alternateBounds" />
          </mxGeometry>
        </mxCell>
        <mxCell id="MvRHuvZ1edDw_HGWbF9z-41" value="0" style="shape=partialRectangle;html=1;whiteSpace=wrap;connectable=0;strokeColor=#36393d;overflow=hidden;fillColor=#eeeeee;top=0;left=0;bottom=0;right=0;pointerEvents=1;fontSize=16;" parent="MvRHuvZ1edDw_HGWbF9z-37" vertex="1">
          <mxGeometry x="795" width="215" height="40" as="geometry">
            <mxRectangle width="215" height="40" as="alternateBounds" />
          </mxGeometry>
        </mxCell>
        <mxCell id="MvRHuvZ1edDw_HGWbF9z-30" style="shape=tableRow;horizontal=0;startSize=0;swimlaneHead=0;swimlaneBody=0;strokeColor=inherit;top=0;left=0;bottom=0;right=0;collapsible=0;dropTarget=0;fillColor=none;points=[[0,0.5],[1,0.5]];portConstraint=eastwest;fontSize=16;" parent="MvRHuvZ1edDw_HGWbF9z-1" vertex="1">
          <mxGeometry y="200" width="1010" height="40" as="geometry" />
        </mxCell>
        <mxCell id="MvRHuvZ1edDw_HGWbF9z-31" value="Celestial Sprite" style="shape=partialRectangle;html=1;whiteSpace=wrap;connectable=0;strokeColor=#36393d;overflow=hidden;fillColor=#f9f7ed;top=0;left=0;bottom=0;right=0;pointerEvents=1;fontSize=16;" parent="MvRHuvZ1edDw_HGWbF9z-30" vertex="1">
          <mxGeometry width="560" height="40" as="geometry">
            <mxRectangle width="560" height="40" as="alternateBounds" />
          </mxGeometry>
        </mxCell>
        <mxCell id="MvRHuvZ1edDw_HGWbF9z-33" value="7" style="shape=partialRectangle;html=1;whiteSpace=wrap;connectable=0;strokeColor=#36393d;overflow=hidden;fillColor=#f9f7ed;top=0;left=0;bottom=0;right=0;pointerEvents=1;fontSize=16;" parent="MvRHuvZ1edDw_HGWbF9z-30" vertex="1">
          <mxGeometry x="560" width="235" height="40" as="geometry">
            <mxRectangle width="235" height="40" as="alternateBounds" />
          </mxGeometry>
        </mxCell>
        <mxCell id="MvRHuvZ1edDw_HGWbF9z-34" value="0" style="shape=partialRectangle;html=1;whiteSpace=wrap;connectable=0;strokeColor=#36393d;overflow=hidden;fillColor=#f9f7ed;top=0;left=0;bottom=0;right=0;pointerEvents=1;fontSize=16;" parent="MvRHuvZ1edDw_HGWbF9z-30" vertex="1">
          <mxGeometry x="795" width="215" height="40" as="geometry">
            <mxRectangle width="215" height="40" as="alternateBounds" />
          </mxGeometry>
        </mxCell>
        <mxCell id="MvRHuvZ1edDw_HGWbF9z-23" style="shape=tableRow;horizontal=0;startSize=0;swimlaneHead=0;swimlaneBody=0;strokeColor=inherit;top=0;left=0;bottom=0;right=0;collapsible=0;dropTarget=0;fillColor=none;points=[[0,0.5],[1,0.5]];portConstraint=eastwest;fontSize=16;" parent="MvRHuvZ1edDw_HGWbF9z-1" vertex="1">
          <mxGeometry y="240" width="1010" height="40" as="geometry" />
        </mxCell>
        <mxCell id="MvRHuvZ1edDw_HGWbF9z-24" value="Crimson Shadow" style="shape=partialRectangle;html=1;whiteSpace=wrap;connectable=0;strokeColor=#36393d;overflow=hidden;fillColor=#eeeeee;top=0;left=0;bottom=0;right=0;pointerEvents=1;fontSize=16;" parent="MvRHuvZ1edDw_HGWbF9z-23" vertex="1">
          <mxGeometry width="560" height="40" as="geometry">
            <mxRectangle width="560" height="40" as="alternateBounds" />
          </mxGeometry>
        </mxCell>
        <mxCell id="MvRHuvZ1edDw_HGWbF9z-26" value="14" style="shape=partialRectangle;html=1;whiteSpace=wrap;connectable=0;strokeColor=#36393d;overflow=hidden;fillColor=#eeeeee;top=0;left=0;bottom=0;right=0;pointerEvents=1;fontSize=16;" parent="MvRHuvZ1edDw_HGWbF9z-23" vertex="1">
          <mxGeometry x="560" width="235" height="40" as="geometry">
            <mxRectangle width="235" height="40" as="alternateBounds" />
          </mxGeometry>
        </mxCell>
        <mxCell id="MvRHuvZ1edDw_HGWbF9z-27" value="14" style="shape=partialRectangle;html=1;whiteSpace=wrap;connectable=0;strokeColor=#36393d;overflow=hidden;fillColor=#eeeeee;top=0;left=0;bottom=0;right=0;pointerEvents=1;fontSize=16;" parent="MvRHuvZ1edDw_HGWbF9z-23" vertex="1">
          <mxGeometry x="795" width="215" height="40" as="geometry">
            <mxRectangle width="215" height="40" as="alternateBounds" />
          </mxGeometry>
        </mxCell>
        <mxCell id="MvRHuvZ1edDw_HGWbF9z-10" value="" style="shape=tableRow;horizontal=0;startSize=0;swimlaneHead=0;swimlaneBody=0;strokeColor=inherit;top=0;left=0;bottom=0;right=0;collapsible=0;dropTarget=0;fillColor=none;points=[[0,0.5],[1,0.5]];portConstraint=eastwest;fontSize=16;" parent="MvRHuvZ1edDw_HGWbF9z-1" vertex="1">
          <mxGeometry y="280" width="1010" height="40" as="geometry" />
        </mxCell>
        <mxCell id="MvRHuvZ1edDw_HGWbF9z-11" value="Eclipse" style="shape=partialRectangle;html=1;whiteSpace=wrap;connectable=0;strokeColor=#36393d;overflow=hidden;fillColor=#f9f7ed;top=0;left=0;bottom=0;right=0;pointerEvents=1;fontSize=16;" parent="MvRHuvZ1edDw_HGWbF9z-10" vertex="1">
          <mxGeometry width="560" height="40" as="geometry">
            <mxRectangle width="560" height="40" as="alternateBounds" />
          </mxGeometry>
        </mxCell>
        <mxCell id="MvRHuvZ1edDw_HGWbF9z-13" value="14" style="shape=partialRectangle;html=1;whiteSpace=wrap;connectable=0;strokeColor=#36393d;overflow=hidden;fillColor=#f9f7ed;top=0;left=0;bottom=0;right=0;pointerEvents=1;fontSize=16;" parent="MvRHuvZ1edDw_HGWbF9z-10" vertex="1">
          <mxGeometry x="560" width="235" height="40" as="geometry">
            <mxRectangle width="235" height="40" as="alternateBounds" />
          </mxGeometry>
        </mxCell>
        <mxCell id="MvRHuvZ1edDw_HGWbF9z-16" value="45" style="shape=partialRectangle;html=1;whiteSpace=wrap;connectable=0;strokeColor=#36393d;overflow=hidden;fillColor=#f9f7ed;top=0;left=0;bottom=0;right=0;pointerEvents=1;fontSize=16;" parent="MvRHuvZ1edDw_HGWbF9z-10" vertex="1">
          <mxGeometry x="795" width="215" height="40" as="geometry">
            <mxRectangle width="215" height="40" as="alternateBounds" />
          </mxGeometry>
        </mxCell>
        <mxCell id="MvRHuvZ1edDw_HGWbF9z-60" style="shape=tableRow;horizontal=0;startSize=0;swimlaneHead=0;swimlaneBody=0;strokeColor=inherit;top=0;left=0;bottom=0;right=0;collapsible=0;dropTarget=0;fillColor=none;points=[[0,0.5],[1,0.5]];portConstraint=eastwest;fontSize=16;" parent="MvRHuvZ1edDw_HGWbF9z-1" vertex="1">
          <mxGeometry y="320" width="1010" height="40" as="geometry" />
        </mxCell>
        <mxCell id="MvRHuvZ1edDw_HGWbF9z-61" value="Graviton" style="shape=partialRectangle;html=1;whiteSpace=wrap;connectable=0;strokeColor=#36393d;overflow=hidden;fillColor=#eeeeee;top=0;left=0;bottom=0;right=0;pointerEvents=1;fontSize=16;" parent="MvRHuvZ1edDw_HGWbF9z-60" vertex="1">
          <mxGeometry width="560" height="40" as="geometry">
            <mxRectangle width="560" height="40" as="alternateBounds" />
          </mxGeometry>
        </mxCell>
        <mxCell id="MvRHuvZ1edDw_HGWbF9z-63" value="7" style="shape=partialRectangle;html=1;whiteSpace=wrap;connectable=0;strokeColor=#36393d;overflow=hidden;fillColor=#eeeeee;top=0;left=0;bottom=0;right=0;pointerEvents=1;fontSize=16;" parent="MvRHuvZ1edDw_HGWbF9z-60" vertex="1">
          <mxGeometry x="560" width="235" height="40" as="geometry">
            <mxRectangle width="235" height="40" as="alternateBounds" />
          </mxGeometry>
        </mxCell>
        <mxCell id="MvRHuvZ1edDw_HGWbF9z-64" value="0" style="shape=partialRectangle;html=1;whiteSpace=wrap;connectable=0;strokeColor=#36393d;overflow=hidden;fillColor=#eeeeee;top=0;left=0;bottom=0;right=0;pointerEvents=1;fontSize=16;" parent="MvRHuvZ1edDw_HGWbF9z-60" vertex="1">
          <mxGeometry x="795" width="215" height="40" as="geometry">
            <mxRectangle width="215" height="40" as="alternateBounds" />
          </mxGeometry>
        </mxCell>
        <mxCell id="MvRHuvZ1edDw_HGWbF9z-59" value="" style="verticalLabelPosition=bottom;shadow=0;dashed=0;align=center;html=1;verticalAlign=top;strokeWidth=1;shape=mxgraph.mockup.navigation.scrollBar;strokeColor=#999999;barPos=99.394;fillColor2=#99ddff;strokeColor2=none;direction=north;" parent="1" vertex="1">
          <mxGeometry x="1050" y="250" width="20" height="350" as="geometry" />
        </mxCell>
        <mxCell id="DG9_N7Wq513RqgrVGhmh-1" value="Sections" style="html=1;shadow=0;dashed=0;shape=mxgraph.bootstrap.rrect;rSize=5;strokeColor=none;strokeWidth=1;fillColor=none;fontColor=#0085FC;whiteSpace=wrap;align=center;verticalAlign=middle;spacingLeft=0;fontStyle=0;fontSize=16;spacing=5;" parent="1" vertex="1">
          <mxGeometry x="800" y="113.5" width="80" height="40" as="geometry" />
        </mxCell>
        <mxCell id="DG9_N7Wq513RqgrVGhmh-2" value="Students" style="html=1;shadow=0;dashed=0;shape=mxgraph.bootstrap.rrect;rSize=5;strokeColor=none;strokeWidth=1;fillColor=none;fontColor=#0085FC;whiteSpace=wrap;align=center;verticalAlign=middle;spacingLeft=0;fontStyle=0;fontSize=16;spacing=5;" parent="1" vertex="1">
          <mxGeometry x="930" y="115" width="80" height="40" as="geometry" />
        </mxCell>
        <mxCell id="DG9_N7Wq513RqgrVGhmh-3" value="" style="endArrow=none;html=1;rounded=0;fillColor=#dae8fc;strokeColor=#6c8ebf;gradientColor=#7ea6e0;" parent="1" edge="1">
          <mxGeometry width="50" height="50" relative="1" as="geometry">
            <mxPoint x="925" y="148.5" as="sourcePoint" />
            <mxPoint x="1015" y="148.5" as="targetPoint" />
          </mxGeometry>
        </mxCell>
        <mxCell id="DG9_N7Wq513RqgrVGhmh-11" value="Search" style="strokeWidth=1;shadow=0;dashed=0;align=center;html=1;shape=mxgraph.mockup.forms.searchBox;strokeColor=#999999;mainText=;strokeColor2=#008cff;fontColor=#666666;fontSize=17;align=left;spacingLeft=3;whiteSpace=wrap;" parent="1" vertex="1">
          <mxGeometry x="235" y="120" width="150" height="30" as="geometry" />
        </mxCell>
        <mxCell id="pWxOx5E1iVjRury2A52z-1" value="" style="shape=table;startSize=0;container=1;collapsible=0;childLayout=tableLayout;fontSize=16;fillColor=#cce5ff;strokeColor=#36393d;" parent="1" vertex="1">
          <mxGeometry x="30" y="160" width="1030" height="80" as="geometry" />
        </mxCell>
        <mxCell id="pWxOx5E1iVjRury2A52z-2" value="" style="shape=tableRow;horizontal=0;startSize=0;swimlaneHead=0;swimlaneBody=0;strokeColor=inherit;top=0;left=0;bottom=0;right=0;collapsible=0;dropTarget=0;fillColor=none;points=[[0,0.5],[1,0.5]];portConstraint=eastwest;fontSize=16;" parent="pWxOx5E1iVjRury2A52z-1" vertex="1">
          <mxGeometry width="1030" height="40" as="geometry" />
        </mxCell>
        <mxCell id="pWxOx5E1iVjRury2A52z-3" value="# Students" style="shape=partialRectangle;html=1;whiteSpace=wrap;connectable=0;strokeColor=inherit;overflow=hidden;fillColor=none;top=0;left=0;bottom=0;right=0;pointerEvents=1;fontSize=16;" parent="pWxOx5E1iVjRury2A52z-2" vertex="1">
          <mxGeometry width="343" height="40" as="geometry">
            <mxRectangle width="343" height="40" as="alternateBounds" />
          </mxGeometry>
        </mxCell>
        <mxCell id="pWxOx5E1iVjRury2A52z-4" value="# Enrollments" style="shape=partialRectangle;html=1;whiteSpace=wrap;connectable=0;strokeColor=inherit;overflow=hidden;fillColor=none;top=0;left=0;bottom=0;right=0;pointerEvents=1;fontSize=16;" parent="pWxOx5E1iVjRury2A52z-2" vertex="1">
          <mxGeometry x="343" width="344" height="40" as="geometry">
            <mxRectangle width="344" height="40" as="alternateBounds" />
          </mxGeometry>
        </mxCell>
        <mxCell id="pWxOx5E1iVjRury2A52z-14" value="# Absences" style="shape=partialRectangle;html=1;whiteSpace=wrap;connectable=0;strokeColor=inherit;overflow=hidden;fillColor=none;top=0;left=0;bottom=0;right=0;pointerEvents=1;fontSize=16;" parent="pWxOx5E1iVjRury2A52z-2" vertex="1">
          <mxGeometry x="687" width="343" height="40" as="geometry">
            <mxRectangle width="343" height="40" as="alternateBounds" />
          </mxGeometry>
        </mxCell>
        <mxCell id="pWxOx5E1iVjRury2A52z-6" value="" style="shape=tableRow;horizontal=0;startSize=0;swimlaneHead=0;swimlaneBody=0;strokeColor=inherit;top=0;left=0;bottom=0;right=0;collapsible=0;dropTarget=0;fillColor=none;points=[[0,0.5],[1,0.5]];portConstraint=eastwest;fontSize=16;" parent="pWxOx5E1iVjRury2A52z-1" vertex="1">
          <mxGeometry y="40" width="1030" height="40" as="geometry" />
        </mxCell>
        <mxCell id="pWxOx5E1iVjRury2A52z-7" value="25" style="shape=partialRectangle;html=1;whiteSpace=wrap;connectable=0;strokeColor=inherit;overflow=hidden;fillColor=none;top=0;left=0;bottom=0;right=0;pointerEvents=1;fontSize=16;" parent="pWxOx5E1iVjRury2A52z-6" vertex="1">
          <mxGeometry width="343" height="40" as="geometry">
            <mxRectangle width="343" height="40" as="alternateBounds" />
          </mxGeometry>
        </mxCell>
        <mxCell id="pWxOx5E1iVjRury2A52z-8" value="259" style="shape=partialRectangle;html=1;whiteSpace=wrap;connectable=0;strokeColor=inherit;overflow=hidden;fillColor=none;top=0;left=0;bottom=0;right=0;pointerEvents=1;fontSize=16;" parent="pWxOx5E1iVjRury2A52z-6" vertex="1">
          <mxGeometry x="343" width="344" height="40" as="geometry">
            <mxRectangle width="344" height="40" as="alternateBounds" />
          </mxGeometry>
        </mxCell>
        <mxCell id="pWxOx5E1iVjRury2A52z-15" value="108" style="shape=partialRectangle;html=1;whiteSpace=wrap;connectable=0;strokeColor=inherit;overflow=hidden;fillColor=none;top=0;left=0;bottom=0;right=0;pointerEvents=1;fontSize=16;" parent="pWxOx5E1iVjRury2A52z-6" vertex="1">
          <mxGeometry x="687" width="343" height="40" as="geometry">
            <mxRectangle width="343" height="40" as="alternateBounds" />
          </mxGeometry>
        </mxCell>
      </root>
    </mxGraphModel>
  </diagram>
</mxfile>
